<svg width="307" height="307" viewBox="0 0 307 307" fill="none" xmlns="http://www.w3.org/2000/svg">
<rect width="307" height="307" fill="white"/>
<path d="M152.979 52C106.511 52.0104 67.7878 85.0571 59 128.936H98.2253C101.111 120.563 105.859 113.067 112.019 106.893C122.562 96.3789 136.925 89.9363 152.979 89.9259C169.035 89.9363 183.398 96.3789 193.938 106.893C204.455 117.433 210.9 131.799 210.908 147.853C210.9 163.911 204.455 178.272 193.938 188.818C183.398 199.329 169.035 205.774 152.979 205.782C136.925 205.774 122.562 199.329 112.019 188.818C105.916 182.696 101.197 175.28 98.3004 167.005L59.0854 166.994V167.005V215.331C59.0854 256.529 94.7361 254.101 94.7361 254.101L94.7568 223.992C110.896 236.357 131.075 243.708 152.979 243.711C205.923 243.698 248.824 200.799 248.834 147.853C248.824 94.9061 205.923 52.0104 152.979 52Z" fill="#00ADEF"/>
</svg>
