<svg width="307" height="307" viewBox="0 0 307 307" fill="none" xmlns="http://www.w3.org/2000/svg">
<rect width="307" height="307" fill="#429DDA"/>
<path d="M136.325 164.1C136.325 167.448 134.995 170.66 132.627 173.027C130.26 175.395 127.048 176.725 123.7 176.725C120.352 176.725 117.14 175.395 114.773 173.027C112.405 170.66 111.075 167.448 111.075 164.1C111.075 160.752 112.405 157.54 114.773 155.173C117.14 152.805 120.352 151.475 123.7 151.475C127.048 151.475 130.26 152.805 132.627 155.173C134.995 157.54 136.325 160.752 136.325 164.1ZM184.3 151.475C180.952 151.475 177.74 152.805 175.373 155.173C173.005 157.54 171.675 160.752 171.675 164.1C171.675 167.448 173.005 170.66 175.373 173.027C177.74 175.395 180.952 176.725 184.3 176.725C187.648 176.725 190.86 175.395 193.227 173.027C195.595 170.66 196.925 167.448 196.925 164.1C196.925 160.752 195.595 157.54 193.227 155.173C190.86 152.805 187.648 151.475 184.3 151.475ZM255 154C255 209.752 209.752 255 154 255C98.248 255 53 209.752 53 154C53 98.248 98.248 53 154 53C209.752 53 255 98.248 255 154ZM140.466 74.412C154.606 97.844 180.26 113.6 209.55 113.6C214.196 113.6 218.741 113.095 223.084 112.388C208.944 88.956 183.29 73.2 154 73.2C149.354 73.2 144.809 73.705 140.466 74.412ZM77.442 128.447C94.8705 118.567 108.035 102.597 114.408 83.603C96.9795 93.4833 83.815 109.453 77.442 128.447ZM234.8 154C234.8 146.122 233.588 138.547 231.467 131.376C224.397 132.891 217.125 133.8 209.55 133.8C194.537 133.803 179.713 130.46 166.155 124.013C152.597 117.566 140.647 108.178 131.174 96.531C125.871 109.35 117.987 120.942 108.014 130.585C98.0407 140.228 86.1905 147.717 73.2 152.586C73.301 152.99 73.2 153.495 73.2 154C73.2 198.541 109.459 234.8 154 234.8C198.541 234.8 234.8 198.541 234.8 154Z" fill="white"/>
</svg>
